C:/Program Files/Krita (x64)/bin/ffmpeg.exe -hide_banner -y -y -r 8 -start_number 0 -start_number_range 1 -i C:/Users/alex/Desktop/PIP-OS V3/img/items/frame%04d.png -i C:/Users/alex/Desktop/PIP-OS V3/img/items/KritaTempPalettegen_%06d.png -lavfi [0:v][1:v]paletteuse=dither=sierra2_4a:diff_mode=none -f gif -loop 0 -gifflags +transdiff C:/Users/alex/Desktop/PIP-OS V3/img/items/capmine.gif
=====================================================
Input #0, image2, from 'C:/Users/alex/Desktop/PIP-OS V3/img/items/frame%04d.png':
  Duration: 00:00:00.96, start: 0.000000, bitrate: N/A
  Stream #0:0: Video: png, rgba(pc), 240x240 [SAR 2835:2835 DAR 1:1], 25 fps, 25 tbr, 25 tbn, 25 tbc
Input #1, image2, from 'C:/Users/alex/Desktop/PIP-OS V3/img/items/KritaTempPalettegen_%06d.png':
  Duration: 00:00:00.04, start: 0.000000, bitrate: N/A
  Stream #1:0: Video: png, rgba(pc), 16x16 [SAR 1:1 DAR 1:1], 25 fps, 25 tbr, 25 tbn, 25 tbc
Stream mapping:
  Stream #0:0 (png) -> paletteuse:default
  Stream #1:0 (png) -> paletteuse:palette
  paletteuse -> Stream #0:0 (gif)
Press [q] to stop, [?] for help
[image2 @ 00000243a8b0d200] Thread message queue blocking; consider raising the thread_queue_size option (current value: 8)
Output #0, gif, to 'C:/Users/alex/Desktop/PIP-OS V3/img/items/capmine.gif':
  Metadata:
    encoder         : Lavf58.76.100
  Stream #0:0: Video: gif, pal8(pc, gbr/unknown/unknown, progressive), 240x240 [SAR 1:1 DAR 1:1], q=2-31, 200 kb/s, 8 fps, 100 tbn (default)
    Metadata:
      encoder         : Lavc58.134.100 gif
frame=    1 fps=0.0 q=-0.0 size=       0kB time=00:00:00.01 bitrate=   0.0kbits/s speed=0.565x    frame=   24 fps=0.0 q=-0.0 Lsize=     275kB time=00:00:02.89 bitrate= 779.4kbits/s speed=  40x    
video:275kB audio:0kB subtitle:0kB other streams:0kB global headers:0kB muxing overhead: 0.007104%
